<svg xmlns:xlink="http://www.w3.org/1999/xlink" xmlns="http://www.w3.org/2000/svg" width="30" height="30" viewBox="0 0 30 30" fill="none">
<path d="M7.5 26.25C6.8125 26.25 6.22417 26.0054 5.735 25.5163C5.24583 25.0271 5.00083 24.4383 5 23.75V12.5C5 12.1042 5.08875 11.7292 5.26625 11.375C5.44375 11.0208 5.68833 10.7292 6 10.5L13.5 4.875C13.9375 4.54167 14.4375 4.375 15 4.375C15.5625 4.375 16.0625 4.54167 16.5 4.875L24 10.5C24.3125 10.7292 24.5575 11.0208 24.735 11.375C24.9125 11.7292 25.0008 12.1042 25 12.5V23.75C25 24.4375 24.755 25.0263 24.265 25.5163C23.775 26.0063 23.1867 26.2508 22.5 26.25H7.5ZM13.125 22.5C13.2917 22.5 13.4375 22.4375 13.5625 22.3125C13.6875 22.1875 13.75 22.0417 13.75 21.875V17.5C14.2708 17.5 14.7137 17.3179 15.0787 16.9537C15.4437 16.5896 15.6258 16.1467 15.625 15.625V12.5C15.625 12.3333 15.5625 12.1875 15.4375 12.0625C15.3125 11.9375 15.1667 11.875 15 11.875C14.8333 11.875 14.6875 11.9375 14.5625 12.0625C14.4375 12.1875 14.375 12.3333 14.375 12.5V15.625H13.75V12.5C13.75 12.3333 13.6875 12.1875 13.5625 12.0625C13.4375 11.9375 13.2917 11.875 13.125 11.875C12.9583 11.875 12.8125 11.9375 12.6875 12.0625C12.5625 12.1875 12.5 12.3333 12.5 12.5V15.625H11.875V12.5C11.875 12.3333 11.8125 12.1875 11.6875 12.0625C11.5625 11.9375 11.4167 11.875 11.25 11.875C11.0833 11.875 10.9375 11.9375 10.8125 12.0625C10.6875 12.1875 10.625 12.3333 10.625 12.5V15.625C10.625 16.1458 10.8075 16.5887 11.1725 16.9537C11.5375 17.3187 11.98 17.5008 12.5 17.5V21.875C12.5 22.0417 12.5625 22.1875 12.6875 22.3125C12.8125 22.4375 12.9583 22.5 13.125 22.5ZM18.125 22.5C18.2917 22.5 18.4375 22.4375 18.5625 22.3125C18.6875 22.1875 18.75 22.0417 18.75 21.875V12.6875C18.75 12.4583 18.6721 12.2658 18.5162 12.11C18.3604 11.9542 18.1675 11.8758 17.9375 11.875C17.375 11.875 16.9533 12.1354 16.6725 12.6562C16.3917 13.1771 16.2508 13.75 16.25 14.375V16.875C16.25 17.2083 16.4012 17.4429 16.7037 17.5787C17.0062 17.7146 17.2717 17.8967 17.5 18.125V21.875C17.5 22.0417 17.5625 22.1875 17.6875 22.3125C17.8125 22.4375 17.9583 22.5 18.125 22.5Z" fill="#496684"/>
</svg>