<svg xmlns:xlink="http://www.w3.org/1999/xlink" xmlns="http://www.w3.org/2000/svg" width="30" height="30" viewBox="0 0 30 30" fill="none">
<path d="M15 8.75C17.1425 8.75 17.5 7.075 17.5 5.695C17.5 4.3125 16.5775 1.875 15 1.875C13.4225 1.875 12.5 4.31375 12.5 5.695C12.5 7.07625 12.8575 8.75 15 8.75ZM4.375 12.8125C4.375 12.0666 4.67132 11.3512 5.19876 10.8238C5.72621 10.2963 6.44158 10 7.1875 10H22.8125C23.5584 10 24.2738 10.2963 24.8012 10.8238C25.3287 11.3512 25.625 12.0666 25.625 12.8125V13.9062L21.0825 17.3137C20.8358 17.4987 20.5399 17.6065 20.2321 17.6236C19.9242 17.6408 19.6182 17.5664 19.3525 17.41L16.8025 15.91C16.2536 15.5874 15.6259 15.4236 14.9894 15.4369C14.3529 15.4501 13.7325 15.6399 13.1975 15.985L10.9963 17.405C10.7448 17.5671 10.4522 17.6536 10.153 17.6543C9.85392 17.6549 9.56088 17.5697 9.30875 17.4088L4.375 14.26V12.8125ZM4.375 16.485V23.125H3.4375C3.18886 23.125 2.9504 23.2238 2.77459 23.3996C2.59877 23.5754 2.5 23.8139 2.5 24.0625C2.5 24.3111 2.59877 24.5496 2.77459 24.7254C2.9504 24.9012 3.18886 25 3.4375 25H26.5625C26.8111 25 27.0496 24.9012 27.2254 24.7254C27.4012 24.5496 27.5 24.3111 27.5 24.0625C27.5 23.8139 27.4012 23.5754 27.2254 23.3996C27.0496 23.2238 26.8111 23.125 26.5625 23.125H25.625V16.25L22.2075 18.8125C21.6651 19.2195 21.0144 19.4569 20.3373 19.4949C19.6603 19.533 18.9871 19.3699 18.4025 19.0262L15.8525 17.5262C15.603 17.3796 15.3177 17.305 15.0283 17.311C14.739 17.317 14.457 17.4032 14.2138 17.56L12.0138 18.98C11.4607 19.3371 10.8167 19.5279 10.1583 19.5297C9.5 19.5315 8.85499 19.3441 8.3 18.99L4.375 16.485Z" fill="#496684"/>
</svg>