<svg xmlns:xlink="http://www.w3.org/1999/xlink" xmlns="http://www.w3.org/2000/svg" width="30" height="30" viewBox="0 0 30 30" fill="none">
<path d="M9.15375 2.5H5V0H10.8463L13.3463 6.25H26.25V8.75H23.6025L22.5688 26.3237C22.5499 26.6419 22.4103 26.9408 22.1785 27.1595C21.9466 27.3781 21.6399 27.4999 21.3212 27.5H8.67875C8.36005 27.4999 8.05342 27.3781 7.82154 27.1595C7.58966 26.9408 7.45005 26.6419 7.43125 26.3237L6.3975 8.75H3.75V6.25H10.6537L9.15375 2.5ZM8.90125 8.75L9.12375 12.5312C12.4637 12.6687 14.085 13.2875 15.45 13.8338C16.7637 14.3588 17.85 14.8162 20.7337 14.9587L21.0987 8.75H8.90125Z" fill="#496684"/>
</svg>