<svg xmlns:xlink="http://www.w3.org/1999/xlink" xmlns="http://www.w3.org/2000/svg" width="30" height="30" viewBox="0 0 30 30" fill="none">
<path d="M10.6374 15.6C10.3902 15.6 10.1485 15.6733 9.94296 15.8106C9.7374 15.948 9.57719 16.1432 9.48258 16.3716C9.38797 16.6 9.36321 16.8514 9.41145 17.0938C9.45968 17.3363 9.57873 17.559 9.75354 17.7338C9.92836 17.9087 10.1511 18.0277 10.3936 18.0759C10.636 18.1242 10.8874 18.0994 11.1158 18.0048C11.3442 17.9102 11.5394 17.75 11.6768 17.5444C11.8141 17.3389 11.8874 17.0972 11.8874 16.85C11.8874 16.5184 11.7557 16.2005 11.5213 15.9661C11.2869 15.7317 10.9689 15.6 10.6374 15.6ZM10.6374 9.99996C10.3902 9.99996 10.1485 10.0733 9.94296 10.2106C9.7374 10.348 9.57719 10.5432 9.48258 10.7716C9.38797 11 9.36321 11.2513 9.41145 11.4938C9.45968 11.7363 9.57873 11.959 9.75354 12.1338C9.92836 12.3087 10.1511 12.4277 10.3936 12.4759C10.636 12.5242 10.8874 12.4994 11.1158 12.4048C11.3442 12.3102 11.5394 12.15 11.6768 11.9444C11.8141 11.7389 11.8874 11.4972 11.8874 11.25C11.8874 10.9184 11.7557 10.6005 11.5213 10.3661C11.2869 10.1317 10.9689 9.99996 10.6374 9.99996ZM14.9999 12.5C14.6684 12.5 14.3505 12.6317 14.116 12.8661C13.8816 13.1005 13.7499 13.4184 13.7499 13.75V15C13.7499 15.3315 13.8816 15.6494 14.116 15.8838C14.3505 16.1183 14.6684 16.25 14.9999 16.25C15.3314 16.25 15.6494 16.1183 15.8838 15.8838C16.1182 15.6494 16.2499 15.3315 16.2499 15V13.75C16.2499 13.4184 16.1182 13.1005 15.8838 12.8661C15.6494 12.6317 15.3314 12.5 14.9999 12.5ZM25.6249 10.7125C25.1937 10.4644 24.7174 10.3045 24.2239 10.2423C23.7303 10.1801 23.2292 10.2167 22.7499 10.35C22.2511 10.4836 21.7865 10.7222 21.3874 11.05L6.88743 2.66246C6.6974 2.55275 6.48185 2.495 6.26243 2.495C6.04301 2.495 5.82745 2.55275 5.63743 2.66246C5.44434 2.771 5.28357 2.92888 5.17155 3.11997C5.05954 3.31105 5.00031 3.52847 4.99993 3.74996V20.2125C4.26225 20.4613 3.62264 20.938 3.17333 21.5737C2.72402 22.2095 2.48822 22.9715 2.49993 23.75C2.49958 24.7274 2.88091 25.6664 3.56269 26.3669C4.24447 27.0673 5.1728 27.4739 6.14993 27.5H6.87493C10.9708 27.4903 14.9913 26.3971 18.5281 24.3312C22.0649 22.2654 24.992 19.3004 27.0124 15.7375C27.479 14.885 27.5965 13.8846 27.34 12.9472C27.0835 12.0098 26.4731 11.2086 25.6374 10.7125H25.6249ZM7.49993 5.91246L19.8624 13.05C18.4909 15.0965 16.6574 16.7918 14.5099 17.9991C12.3624 19.2064 9.96114 19.8918 7.49993 20V5.91246ZM24.8374 14.5125C22.9817 17.782 20.2717 20.4853 16.9974 22.3327C13.7231 24.1801 10.008 25.1021 6.24993 25C5.91841 25 5.60046 24.8683 5.36604 24.6338C5.13162 24.3994 4.99993 24.0815 4.99993 23.75C4.99895 23.5825 5.03164 23.4165 5.09606 23.2619C5.16048 23.1073 5.25531 22.9672 5.37493 22.85C5.60976 22.6236 5.92377 22.498 6.24993 22.5H6.88743C10.0971 22.4987 13.2488 21.6451 16.0204 20.0265C18.7921 18.4078 21.0842 16.0823 22.6624 13.2875C22.7383 13.1503 22.842 13.0306 22.9668 12.9359C23.0917 12.8412 23.2349 12.7736 23.3874 12.7375C23.7026 12.651 24.0392 12.6913 24.3249 12.85C24.6117 13.0041 24.8271 13.2641 24.9251 13.5746C25.0231 13.8851 24.9962 14.2216 24.8499 14.5125H24.8374Z" fill="#496684"/>
</svg>