<svg xmlns:xlink="http://www.w3.org/1999/xlink" xmlns="http://www.w3.org/2000/svg" width="32" height="32" viewBox="0 0 32 32" fill="none">
<path d="M11.7447 23.6114C8.46218 23.6114 5.68442 22.4743 3.41138 20.2C1.13833 17.9258 0.00120554 15.148 9.56017e-07 11.8667C-0.00120363 8.58546 1.13592 5.80769 3.41138 3.53344C5.68683 1.2592 8.46459 0.12207 11.7447 0.12207C15.0247 0.12207 17.8031 1.2592 20.0798 3.53344C22.3564 5.80769 23.493 8.58546 23.4893 11.8667C23.4893 13.1918 23.2785 14.4415 22.8569 15.616C22.4353 16.7905 21.8632 17.8294 21.1404 18.7328L31.2589 28.8513C31.5901 29.1826 31.7558 29.6042 31.7558 30.1161C31.7558 30.6281 31.5901 31.0497 31.2589 31.381C30.9276 31.7122 30.506 31.8778 29.9941 31.8778C29.4821 31.8778 29.0605 31.7122 28.7293 31.381L18.6108 21.2625C17.7073 21.9852 16.6684 22.5574 15.4939 22.979C14.3195 23.4006 13.0697 23.6114 11.7447 23.6114ZM11.7447 19.9977C14.0033 19.9977 15.9234 19.2075 17.505 17.627C19.0866 16.0466 19.8768 14.1265 19.8756 11.8667C19.8744 9.60694 19.0842 7.68744 17.505 6.10824C15.9258 4.52903 14.0057 3.73822 11.7447 3.73581C9.48367 3.7334 7.56417 4.52421 5.98617 6.10824C4.40817 7.69226 3.61736 9.61176 3.61374 11.8667C3.61013 14.1217 4.40094 16.0418 5.98617 17.627C7.5714 19.2123 9.4909 20.0025 11.7447 19.9977Z" fill="#5D81A7"/>
</svg>